# xmcd
#
# Track frame offsets:
#  150
#  14071
#  25370
#  41064
#  55948
#  69331
#  82905
#  95097
#  108195
#  120780
#  134247
#  156810
#  171286
#  185851
#  205981
#  220586
#  232877
#  247312
#  260318
#  274894
#  289034
#  303035
#  314391
#
# Disc length: 4382 seconds
#
# Revision: 4
# Processed by: cddbd v1.5.1PL2 Copyright (c) Steve Scherf et al.
# Submitted via: Collectorz.com_Music_Collector 6.11
#
DISCID=4f111c17
DTITLE=Frank Sinatra - I'll Be Seeing You [CD 1)
DYEAR=1900
DGENRE=Blues
TTITLE0=I'll Be Seeing You
TTITLE1=The Sunshine Of Your Smile
TTITLE2=Shake Down The Stars
TTITLE3=East Of The Sun
TTITLE4=Trade Winds
TTITLE5=Our Love Affair
TTITLE6=You And I
TTITLE7=How About You?
TTITLE8=You Might Have Belonged To Another
TTITLE9=Take Me
TTITLE10=Let's Get Away From It All
TTITLE11=Daybreak
TTITLE12=People Will Say
TTITLE13=Without A Song
TTITLE14=Fools Rush In
TTITLE15=There Are Things
TTITLE16=I Don't Stand A Ghost Of A Chance
TTITLE17=Tell Me At Midnight
TTITLE18=Oh! Look At Me Now
TTITLE19=Devil May Care
TTITLE20=April Played The Fiddle
TTITLE21=Blue Skies
TTITLE22=Stardust
EXTD=
EXTT0=
EXTT1=
EXTT2=
EXTT3=
EXTT4=
EXTT5=
EXTT6=
EXTT7=
EXTT8=
EXTT9=
EXTT10=
EXTT11=
EXTT12=
EXTT13=
EXTT14=
EXTT15=
EXTT16=
EXTT17=
EXTT18=
EXTT19=
EXTT20=
EXTT21=
EXTT22=
PLAYORDER=
